# xmcd
#
# Track frame offsets:
#	150
#	23778
#	42236
#	62036
#	77695
#	95926
#	108374
#	128505
#	154836
#	169309
#	187002
#	209352
#	236261
#
# Disc length: 3331 seconds
#
# Revision: 0
# Processed by: cddbd v1.5.2PL0 Copyright (c) Steve Scherf et al.
# Submitted via: dBpowerAMP V4.0
#
DISCID=ab0d010d
DTITLE=Tab Benoit - Brother To The Blues
DYEAR=2006
DGENRE=Blues
TTITLE0=Pack It Up
TTITLE1=Bring It On Home To Me
TTITLE2=Brother To The Blues
TTITLE3=Why Are People Like That?
TTITLE4=I'm On Your Side
TTITLE5=I Heard That Lonesome Whistle
TTITLE6=If You Love Me Like You Say
TTITLE7=Comin' On Strong
TTITLE8=So High
TTITLE9=Grace's Song
TTITLE10=Moon Coming Over The Hill
TTITLE11=Somehow
TTITLE12=Can't Do One More Two-Step
EXTD=
EXTT0=
EXTT1=
EXTT2=
EXTT3=
EXTT4=
EXTT5=
EXTT6=
EXTT7=
EXTT8=
EXTT9=
EXTT10=
EXTT11=
EXTT12=
PLAYORDER=
